<svg xmlns="http://www.w3.org/2000/svg" viewBox="0 0 1200 675" width="1200" height="675" role="img" aria-label="Cara daftar upacara 17 Agustus 2026 di Istana Negara">
  <defs>
    <linearGradient id="g2" x1="0" y1="0" x2="0" y2="1">
      <stop offset="0" stop-color="#B3132A"/>
      <stop offset="1" stop-color="#7A0C1C"/>
    </linearGradient>
  </defs>
  <rect width="1200" height="675" fill="url(#g2)"/>
  <rect width="1200" height="300" fill="#D71920"/>
  <rect y="300" width="1200" height="60" fill="#FFFFFF"/>
  <g opacity="0.15" fill="#FFFFFF">
    <polygon points="1000,120 1016,168 1066,168 1026,198 1041,246 1000,216 959,246 974,198 934,168 984,168"/>
    <polygon points="1120,240 1130,270 1162,270 1136,289 1146,319 1120,300 1094,319 1104,289 1078,270 1110,270"/>
  </g>
  <rect x="70" y="86" width="230" height="44" rx="22" fill="#FFFFFF"/>
  <text x="90" y="116" font-family="Arial, sans-serif" font-size="20" font-weight="700" letter-spacing="2" fill="#D71920">NASIONAL</text>
  <text x="70" y="230" font-family="Georgia, 'Times New Roman', serif" font-size="120" font-weight="800" fill="#FFFFFF">17</text>
  <text x="210" y="230" font-family="Georgia, 'Times New Roman', serif" font-size="64" font-weight="700" fill="#FFFFFF">AGUSTUS</text>
  <text x="210" y="285" font-family="Arial, sans-serif" font-size="30" letter-spacing="8" fill="#FFF3B0">2026</text>
  <text x="70" y="470" font-family="Georgia, 'Times New Roman', serif" font-size="46" font-weight="700" fill="#7A0C1C">Upacara di Istana Negara</text>
  <text x="70" y="528" font-family="Arial, sans-serif" font-size="26" fill="#7A0C1C" opacity="0.85">Cara daftar, syarat &amp; jadwalnya</text>
  <text x="70" y="620" font-family="Arial, sans-serif" font-size="22" letter-spacing="3" fill="#7A0C1C" opacity="0.7">PT KARYA SANG PRABU · KABAR</text>
</svg>
